/* XPM */
static char * SpaceCats[] = {
"128 128 7 1",
" 	c None",
".	c #000000",
"+	c #FFFF80",
"@	c #FFFF40",
"#	c #FFFF00",
"$	c #FFE000",
"%	c #FFC000",
"                                                                                                                                ",
"                                                                                                                                ",
"                                                                                                                                ",
"                                                                                                                                ",
"                                                                                                                                ",
"                                                                                                                                ",
"                                                                          ............                                          ",
"                                                                          ............                                          ",
"                                                                          ............                                          ",
"                                                                          ............                                          ",
"                                                                      ....++++++++++++....                                      ",
"                                                                      ....++++++++++++....                                      ",
"                                                                      ....++++++++++++....                                      ",
"                                                                      ....++++++++++++....                                      ",
"                                                                  ....++++++++++++....                                          ",
"                                                                  ....++++++++++++....                                          ",
"                                                                  ....++++++++++++....                                          ",
"                                                                  ....++++++++++++....                                          ",
"                                                              ....++++++++++++....                                              ",
"                                                              ....++++++++++++....                                              ",
"                                                              ....++++++++++++....                                              ",
"                                                              ....++++++++++++....                                              ",
"              ................                            ....++@@++@@++@@++@@....                                              ",
"              ................                            ....++@@++@@++@@++@@....                                              ",
"              ................                            ....@@++@@++@@++@@++....                                              ",
"              ................                            ....@@++@@++@@++@@++....                                              ",
"          ....++@@++@@++@@++@@............                ....++@@++@@++@@++@@....                                              ",
"          ....++@@++@@++@@++@@............                ....++@@++@@++@@++@@....                                              ",
"          ....@@++@@++@@++@@++............                ....@@++@@++@@++@@++....                                              ",
"          ....@@++@@++@@++@@++............                ....@@++@@++@@++@@++....                                              ",
"              ....++@@++@@++@@++@@++@@++@@....        ........++@@++@@++@@++@@....                                              ",
"              ....++@@++@@++@@++@@++@@++@@....        ........++@@++@@++@@++@@....                                              ",
"              ....@@++@@++@@++@@++@@++@@++....        ........@@++@@++@@++@@++....                                              ",
"              ....@@++@@++@@++@@++@@++@@++....        ........@@++@@++@@++@@++....                                              ",
"                  ....@@@@@@@@@@@@@@@@@@@@@@@@........@@@@@@@@@@@@@@@@@@@@@@@@............                                      ",
"                  ....@@@@@@@@@@@@@@@@@@@@@@@@........@@@@@@@@@@@@@@@@@@@@@@@@............                                      ",
"                  ....@@@@@@@@@@@@@@@@@@@@@@@@........@@@@@@@@@@@@@@@@@@@@@@@@............                                      ",
"                  ....@@@@@@@@@@@@@@@@@@@@@@@@........@@@@@@@@@@@@@@@@@@@@@@@@............                                      ",
"                      ....@@@@@@@@@@@@@@@@@@@@@@@@@@@@@@@@@@@@@@@@@@@@@@@@@@@@@@@@@@@@@@@@....                                  ",
"                      ....@@@@@@@@@@@@@@@@@@@@@@@@@@@@@@@@@@@@@@@@@@@@@@@@@@@@@@@@@@@@@@@@....                                  ",
"                      ....@@@@@@@@@@@@@@@@@@@@@@@@@@@@@@@@@@@@@@@@@@@@@@@@@@@@@@@@@@@@@@@@....                                  ",
"                      ....@@@@@@@@@@@@@@@@@@@@@@@@@@@@@@@@@@@@@@@@@@@@@@@@@@@@@@@@@@@@@@@@....                                  ",
"                          ....@@@@@@@@@@@@@@@@@@@@@@@@@@@@@@@@@@@@@@@@@@@@@@@@@@@@@@@@@@@@....                                  ",
"                          ....@@@@@@@@@@@@@@@@@@@@@@@@@@@@@@@@@@@@@@@@@@@@@@@@@@@@@@@@@@@@....                                  ",
"                          ....@@@@@@@@@@@@@@@@@@@@@@@@@@@@@@@@@@@@@@@@@@@@@@@@@@@@@@@@@@@@....                                  ",
"                          ....@@@@@@@@@@@@@@@@@@@@@@@@@@@@@@@@@@@@@@@@@@@@@@@@@@@@@@@@@@@@....                                  ",
"                          ....@@##@@##@@##@@##@@##@@##@@##@@##@@##@@##@@##@@##@@##@@##....                                      ",
"                          ....@@##@@##@@##@@##@@##@@##@@##@@##@@##@@##@@##@@##@@##@@##....                                      ",
"                          ....##@@##@@##@@##@@##@@##@@##@@##@@##@@##@@##@@##@@##@@##@@....                                      ",
"                          ....##@@##@@##@@##@@##@@##@@##@@##@@##@@##@@##@@##@@##@@##@@....                                      ",
"                          ....@@##@@##@@##@@##@@##@@##@@##....................@@##@@##....                                      ",
"                          ....@@##@@##@@##@@##@@##@@##@@##....................@@##@@##....                                      ",
"                          ....##@@##@@##@@##@@##@@##@@##@@....................##@@##@@....                                      ",
"                          ....##@@##@@##@@##@@##@@##@@##@@....................##@@##@@....                                      ",
"                          ....@@##@@##@@##@@##@@##@@##....                    ........                                          ",
"                          ....@@##@@##@@##@@##@@##@@##....                    ........                                          ",
"                          ....##@@##@@##@@##@@##@@##@@....                    ........                                          ",
"                          ....##@@##@@##@@##@@##@@##@@....                    ........                                          ",
"                          ....####################....                                                                          ",
"                          ....####################....                                                                          ",
"                          ....####################....                                                                          ",
"                          ....####################....                                                                          ",
"                      ....####################....                                                                              ",
"                      ....####################....                                                                              ",
"                      ....####################....                                                                              ",
"                      ....####################....                                                                              ",
"                      ....####################....                                                                              ",
"                      ....####################....                                                                              ",
"                      ....####################....                                                                              ",
"                      ....####################....                                                                              ",
"                      ....##$$##$$##$$##$$##$$....                                                                              ",
"                      ....##$$##$$##$$##$$##$$....                                                                              ",
"                      ....$$##$$##$$##$$##$$##....                                                                              ",
"                      ....$$##$$##$$##$$##$$##....                                                                              ",
"                      ....##$$##$$##$$##$$##$$....                                                ............                  ",
"                      ....##$$##$$##$$##$$##$$....                                                ............                  ",
"                      ....$$##$$##$$##$$##$$##....                                                ............                  ",
"                      ....$$##$$##$$##$$##$$##....                                                ............                  ",
"                      ....##$$##$$##$$##$$##$$....                                            ....##$$##$$##$$....              ",
"                      ....##$$##$$##$$##$$##$$....                                            ....##$$##$$##$$....              ",
"                      ....$$##$$##$$##$$##$$##....                                            ....$$##$$##$$##....              ",
"                      ....$$##$$##$$##$$##$$##....                                            ....$$##$$##$$##....              ",
"                      ....$$$$$$$$$$$$$$$$$$$$....                                        ....$$$$............                  ",
"                      ....$$$$$$$$$$$$$$$$$$$$....                                        ....$$$$............                  ",
"                      ....$$$$$$$$$$$$$$$$$$$$....                                        ....$$$$............                  ",
"                      ....$$$$$$$$$$$$$$$$$$$$....                                        ....$$$$............                  ",
"                      ....$$$$$$$$$$$$$$$$$$$$....                                        ....$$$$........                      ",
"                      ....$$$$$$$$$$$$$$$$$$$$....                                        ....$$$$........                      ",
"                      ....$$$$$$$$$$$$$$$$$$$$....                                        ....$$$$........                      ",
"                      ....$$$$$$$$$$$$$$$$$$$$....                                        ....$$$$........                      ",
"                      ....$$$$$$$$$$$$$$$$$$$$$$$$....                                        ....$$$$$$$$....                  ",
"                      ....$$$$$$$$$$$$$$$$$$$$$$$$....                                        ....$$$$$$$$....                  ",
"                      ....$$$$$$$$$$$$$$$$$$$$$$$$....                                        ....$$$$$$$$....                  ",
"                      ....$$$$$$$$$$$$$$$$$$$$$$$$....                                        ....$$$$$$$$....                  ",
"                          ....%%$$%%$$%%$$%%$$%%$$........                    ........            ........%%$$....              ",
"                          ....%%$$%%$$%%$$%%$$%%$$........                    ........            ........%%$$....              ",
"                          ....$$%%$$%%$$%%$$%%$$%%........                    ........            ........$$%%....              ",
"                          ....$$%%$$%%$$%%$$%%$$%%........                    ........            ........$$%%....              ",
"                          ....%%$$%%$$%%$$%%$$%%$$%%$$%%$$....................%%$$%%$$....                ....%%$$....          ",
"                          ....%%$$%%$$%%$$%%$$%%$$%%$$%%$$....................%%$$%%$$....                ....%%$$....          ",
"                          ....$$%%$$%%$$%%$$%%$$%%$$%%$$%%....................$$%%$$%%....                ....$$%%....          ",
"                          ....$$%%$$%%$$%%$$%%$$%%$$%%$$%%....................$$%%$$%%....                ....$$%%....          ",
"                              ....%%$$%%$$%%$$%%$$%%$$%%$$%%$$%%$$%%$$%%$$%%$$%%$$%%$$%%$$................%%$$....              ",
"                              ....%%$$%%$$%%$$%%$$%%$$%%$$%%$$%%$$%%$$%%$$%%$$%%$$%%$$%%$$................%%$$....              ",
"                              ....$$%%$$%%$$%%$$%%$$%%$$%%$$%%$$%%$$%%$$%%$$%%$$%%$$%%$$%%................$$%%....              ",
"                              ....$$%%$$%%$$%%$$%%$$%%$$%%$$%%$$%%$$%%$$%%$$%%$$%%$$%%$$%%................$$%%....              ",
"                                  ....%%%%%%%%%%%%%%%%%%%%%%%%%%%%%%%%%%%%%%%%%%%%%%%%%%%%%%%%%%%%%%%%%%%%....                  ",
"                                  ....%%%%%%%%%%%%%%%%%%%%%%%%%%%%%%%%%%%%%%%%%%%%%%%%%%%%%%%%%%%%%%%%%%%%....                  ",
"                                  ....%%%%%%%%%%%%%%%%%%%%%%%%%%%%%%%%%%%%%%%%%%%%%%%%%%%%%%%%%%%%%%%%%%%%....                  ",
"                                  ....%%%%%%%%%%%%%%%%%%%%%%%%%%%%%%%%%%%%%%%%%%%%%%%%%%%%%%%%%%%%%%%%%%%%....                  ",
"                                      ....%%%%%%%%%%%%%%%%%%%%%%%%%%%%%%%%%%%%%%%%%%%%%%%%................                      ",
"                                      ....%%%%%%%%%%%%%%%%%%%%%%%%%%%%%%%%%%%%%%%%%%%%%%%%................                      ",
"                                      ....%%%%%%%%%%%%%%%%%%%%%%%%%%%%%%%%%%%%%%%%%%%%%%%%................                      ",
"                                      ....%%%%%%%%%%%%%%%%%%%%%%%%%%%%%%%%%%%%%%%%%%%%%%%%................                      ",
"                                          ........%%%%%%%%%%%%%%%%%%%%%%%%%%%%............                                      ",
"                                          ........%%%%%%%%%%%%%%%%%%%%%%%%%%%%............                                      ",
"                                          ........%%%%%%%%%%%%%%%%%%%%%%%%%%%%............                                      ",
"                                          ........%%%%%%%%%%%%%%%%%%%%%%%%%%%%............                                      ",
"                                                  ............................                                                  ",
"                                                  ............................                                                  ",
"                                                  ............................                                                  ",
"                                                  ............................                                                  ",
"                                                                                                                                ",
"                                                                                                                                ",
"                                                                                                                                ",
"                                                                                                                                ",
"                                                                                                                                ",
"                                                                                                                                "};
